<?xml version="1.0" encoding="UTF-8" standalone="no"?>
<!-- Created with Inkscape (http://www.inkscape.org/) -->

<svg
   width="89.999962mm"
   height="90.000572mm"
   viewBox="0 0 89.999962 90.000572"
   version="1.1"
   id="svg1"
   xmlns:xlink="http://www.w3.org/1999/xlink"
   xmlns="http://www.w3.org/2000/svg"
   xmlns:svg="http://www.w3.org/2000/svg">
  <defs
     id="defs1" />
  <g
     id="layer1"
     transform="translate(-95.698301,-43.375756)">
    <g
       id="g24"
       transform="matrix(1.0001439,0,0,1.0379378,24.733543,16.076384)">
      <path
         id="rect14"
         style="fill:#35d135;fill-opacity:1;stroke:none;stroke-width:0.123129;stroke-opacity:1"
         d="m 128.70753,34.553156 c -1.91883,10e-7 -3.83759,0.735063 -5.3079,2.20537 -2.94061,2.94061 -2.94061,7.67539 0,10.616 l 1.03927,1.03927 c 10.6234,10.75857 10.616,10.616 10.616,10.616 0,0 -0.0729,0.22406 10.6158,-10.616 l 1.03948,-1.03927 c 2.9406,-2.94061 2.9406,-7.6754 -1e-5,-10.616 -2.9406,-2.940611 -7.67539,-2.94061 -10.616,0 l -1.03927,1.03948 -1.03947,-1.03948 c -1.47031,-1.470308 -3.38908,-2.205371 -5.3079,-2.20537 z" />
      <use
         x="0"
         y="0"
         xlink:href="#rect14"
         id="use17"
         transform="rotate(90,135.06841,59.511086)" />
      <use
         x="0"
         y="0"
         xlink:href="#rect14"
         id="use17-5"
         transform="rotate(180,135.03409,59.523045)" />
      <use
         x="0"
         y="0"
         xlink:href="#rect14"
         id="use17-5-9"
         transform="rotate(-90,134.9165,59.59098)" />
      <circle
         style="fill:#35d135;fill-opacity:1;stroke:none;stroke-width:0.423;stroke-dasharray:none;stroke-opacity:1"
         id="path20"
         cx="135.28014"
         cy="60.34404"
         r="8.3454323" />
      <path
         style="fill:none;fill-opacity:1;stroke:#000000;stroke-width:0;stroke-dasharray:none;stroke-opacity:1"
         d="m 133.48721,61.045981 c 0,0 -13.56577,29.211629 -24.87059,22.157428 C 97.311815,76.149207 97.311815,76.510961 97.311815,76.510961"
         id="path21" />
      <path
         style="fill:none;fill-opacity:1;stroke:#35d135;stroke-width:1;stroke-dasharray:none;stroke-opacity:1"
         d="m 130.14098,64.301764 c -0.25809,0.322607 -13.90962,15.02029 -25.23234,12.661389 l -6.511565,-1.356576"
         id="path22" />
    </g>
    <use
       x="0"
       y="0"
       xlink:href="#g24"
       id="use24"
       transform="matrix(0.0804143,-0.44805867,0.41602295,0.0804143,61.805317,132.73559)" />
    <use
       x="0"
       y="0"
       xlink:href="#g24"
       id="use24-9"
       transform="matrix(0.19147957,0.09893524,-0.09186149,0.19147957,104.81593,18.422063)" />
    <use
       x="0"
       y="0"
       xlink:href="#g24"
       id="use24-9-1"
       transform="matrix(0.36282285,-0.03424089,0.03179269,0.36282285,55.729597,69.37886)" />
    <use
       x="0"
       y="0"
       xlink:href="#g24"
       id="use24-9-1-0"
       transform="matrix(0.17199613,-0.21947239,0.20378035,0.17199613,82.689047,85.214523)" />
    <use
       x="0"
       y="0"
       xlink:href="#g24"
       id="use24-9-0"
       transform="matrix(-0.1102971,-0.19019383,0.17659518,-0.1102971,145.07231,88.224975)" />
    <use
       x="0"
       y="0"
       xlink:href="#g24"
       id="use24-9-0-6"
       transform="matrix(-0.07504952,-0.12562135,0.12016077,-0.07285025,177.36786,144.93808)" />
    <use
       x="0"
       y="0"
       xlink:href="#g24"
       id="use24-9-0-6-6"
       transform="matrix(0.07504952,-0.12562135,-0.12016077,-0.07285025,104.63073,144.93808)" />
    <use
       x="0"
       y="0"
       xlink:href="#use24-9-0"
       id="use1"
       transform="matrix(0.78898633,0.63762833,-0.59203858,0.78898633,45.300813,-49.960502)" />
    <g
       id="g26"
       transform="matrix(0.99892628,0,0,1.0390986,0.10275243,-1.6944322)">
      <rect
         style="fill:none;fill-opacity:1;stroke:#000000;stroke-width:1.57667;stroke-dasharray:none;stroke-opacity:1"
         id="rect1-3-2"
         width="88.423088"
         height="25.69499"
         x="96.58358"
         y="103.50507"
         ry="4.2175117" />
      <text
         xml:space="preserve"
         style="font-style:italic;font-weight:bold;font-size:10.5833px;line-height:1.25;font-family:sans-serif;-inkscape-font-specification:'sans-serif Bold Italic';letter-spacing:0px;stroke-width:0.264583"
         x="114.89294"
         y="143.29526"
         id="text27"><tspan
           id="tspan27"
           style="letter-spacing:0px;stroke-width:0.264583"
           x="114.89294"
           y="143.29526" /></text>
      <text
         xml:space="preserve"
         style="font-style:italic;font-weight:bold;font-size:10.5833px;line-height:1.15;font-family:sans-serif;-inkscape-font-specification:'sans-serif Bold Italic';letter-spacing:0px;stroke-width:0.264583"
         x="112.5618"
         y="114.21007"
         id="text28"><tspan
           id="tspan28"
           style="line-height:1.15;letter-spacing:0px;stroke-width:0.264583"
           x="112.5618"
           y="114.21007">Kaikki tai</tspan><tspan
           style="line-height:1.15;letter-spacing:0px;stroke-width:0.264583"
           x="112.5618"
           y="126.38086"
           id="tspan29">ei mitään</tspan></text>
    </g>
  </g>
</svg>
