<?xml version="1.0" encoding="UTF-8" standalone="no"?>
<!-- Created with Inkscape (http://www.inkscape.org/) -->

<svg
   width="138.81342mm"
   height="44.786224mm"
   viewBox="0 0 138.81342 44.786224"
   version="1.1"
   id="svg5"
   xmlns="http://www.w3.org/2000/svg"
   xmlns:svg="http://www.w3.org/2000/svg">
  <defs
     id="defs2" />
  <g
     id="layer1"
     transform="translate(-80.850805,-53.625421)">
    <g
       id="g1"
       transform="matrix(0.49537536,0,0,0.49537536,73.405211,32.731301)">
      <path
         style="fill:#0000ab;fill-opacity:1;stroke:none;stroke-width:3"
         id="path942"
         transform="matrix(0.31803058,-0.07752816,0.07752816,0.31803058,-39.670483,23.073596)"
         d="m 174.39793,300.21357 c -1.95624,-1.81239 12.23887,-64.22078 14.78657,-65.00873 2.5477,-0.78795 49.49739,42.70956 48.90593,45.30991 -0.59147,2.60035 -61.73626,21.51122 -63.6925,19.69882 z" />
      <path
         style="fill:#0000ab;fill-opacity:1;stroke:none;stroke-width:3"
         id="path942-0"
         transform="matrix(-0.31803058,-0.07752816,-0.07752816,0.31803058,114.04233,23.13817)"
         d="m 174.39793,300.21357 c -1.95624,-1.81239 12.23887,-64.22078 14.78657,-65.00873 2.5477,-0.78795 49.49739,42.70956 48.90593,45.30991 -0.59147,2.60035 -61.73626,21.51122 -63.6925,19.69882 z" />
      <path
         style="fill:#0000ab;fill-opacity:1;stroke:none;stroke-width:3"
         id="path942-0-9"
         transform="matrix(0.31803058,0.07752816,0.07752816,-0.31803058,-62.946684,178.96132)"
         d="m 174.39793,300.21357 c -1.95624,-1.81239 12.23887,-64.22078 14.78657,-65.00873 2.5477,-0.78795 49.49739,42.70956 48.90593,45.30991 -0.59147,2.60035 -61.73626,21.51122 -63.6925,19.69882 z" />
      <path
         style="fill:#0000ab;fill-opacity:1;stroke:none;stroke-width:3"
         id="path942-0-9-9"
         transform="matrix(0.31803058,0.07752816,0.07752816,-0.31803058,-62.930231,151.3515)"
         d="m 174.39793,300.21357 c -1.95624,-1.81239 12.23887,-64.22078 14.78657,-65.00873 2.5477,-0.78795 49.49739,42.70956 48.90593,45.30991 -0.59147,2.60035 -61.73626,21.51122 -63.6925,19.69882 z" />
      <path
         style="fill:#0000ab;fill-opacity:1;stroke:none;stroke-width:3"
         id="path942-0-9-9-1"
         transform="matrix(-0.31803058,0.07752816,-0.07752816,-0.31803058,114.45451,137.47445)"
         d="m 174.39793,300.21357 c -1.95624,-1.81239 12.23887,-64.22078 14.78657,-65.00873 2.5477,-0.78795 49.49739,42.70956 48.90593,45.30991 -0.59147,2.60035 -61.73626,21.51122 -63.6925,19.69882 z" />
      <path
         style="fill:#0000ab;fill-opacity:1;stroke:none;stroke-width:3"
         id="path942-0-9-9-1-7"
         transform="matrix(0.31803058,0.07752816,0.07752816,-0.31803058,-62.809294,124.14696)"
         d="m 174.39793,300.21357 c -1.95624,-1.81239 12.23887,-64.22078 14.78657,-65.00873 2.5477,-0.78795 49.49739,42.70956 48.90593,45.30991 -0.59147,2.60035 -61.73626,21.51122 -63.6925,19.69882 z" />
      <path
         style="fill:#0000ab;fill-opacity:1;stroke:none;stroke-width:3"
         id="path942-0-9-9-1-7-2"
         transform="matrix(-0.31803058,0.07752816,-0.07752816,-0.31803058,114.17973,192.70789)"
         d="m 174.39793,300.21357 c -1.95624,-1.81239 12.23887,-64.22078 14.78657,-65.00873 2.5477,-0.78795 49.49739,42.70956 48.90593,45.30991 -0.59147,2.60035 -61.73626,21.51122 -63.6925,19.69882 z" />
      <path
         style="fill:#0000ab;fill-opacity:1;stroke:none;stroke-width:3"
         id="path942-9"
         transform="matrix(0.222966,0.23966689,-0.23966689,0.222966,73.50883,-28.415942)"
         d="m 174.39793,300.21357 c -1.95624,-1.81239 12.23887,-64.22078 14.78657,-65.00873 2.5477,-0.78795 49.49739,42.70956 48.90593,45.30991 -0.59147,2.60035 -61.73626,21.51122 -63.6925,19.69882 z" />
      <path
         style="fill:#0000ab;fill-opacity:1;stroke:none;stroke-width:3"
         id="path942-9-0"
         transform="matrix(-0.09144812,0.31431083,-0.31431083,-0.09144812,173.16278,41.475488)"
         d="m 174.39793,300.21357 c -1.95624,-1.81239 12.23887,-64.22078 14.78657,-65.00873 2.5477,-0.78795 49.49739,42.70956 48.90593,45.30991 -0.59147,2.60035 -61.73626,21.51122 -63.6925,19.69882 z" />
      <path
         style="fill:#0000ab;fill-opacity:1;stroke:none;stroke-width:3"
         id="path942-9-0-5"
         transform="matrix(0.22282934,0.23979396,-0.23979396,0.22282934,98.430996,-42.44076)"
         d="m 174.39793,300.21357 c -1.95624,-1.81239 12.23887,-64.22078 14.78657,-65.00873 2.5477,-0.78795 49.49739,42.70956 48.90593,45.30991 -0.59147,2.60035 -61.73626,21.51122 -63.6925,19.69882 z" />
      <path
         style="fill:#0000ab;fill-opacity:1;stroke:none;stroke-width:3"
         id="path942-9-0-5-2"
         transform="matrix(0.22282934,0.23979396,-0.23979396,0.22282934,74.492342,-1.4857293)"
         d="m 174.39793,300.21357 c -1.95624,-1.81239 12.23887,-64.22078 14.78657,-65.00873 2.5477,-0.78795 49.49739,42.70956 48.90593,45.30991 -0.59147,2.60035 -61.73626,21.51122 -63.6925,19.69882 z" />
      <path
         style="fill:#0000ab;fill-opacity:1;stroke:none;stroke-width:3"
         id="path942-9-0-5-2-2"
         transform="matrix(0.31739119,-0.0801055,0.0801055,0.31739119,-15.87402,36.774684)"
         d="m 174.39793,300.21357 c -1.95624,-1.81239 12.23887,-64.22078 14.78657,-65.00873 2.5477,-0.78795 49.49739,42.70956 48.90593,45.30991 -0.59147,2.60035 -61.73626,21.51122 -63.6925,19.69882 z" />
      <path
         style="fill:#0000ab;fill-opacity:1;stroke:none;stroke-width:3"
         id="path942-9-0-5-2-2-7"
         transform="matrix(0.07319511,-0.31905569,0.31905569,0.07319511,-22.800224,163.54638)"
         d="m 174.39793,300.21357 c -1.95624,-1.81239 12.23887,-64.22078 14.78657,-65.00873 2.5477,-0.78795 49.49739,42.70956 48.90593,45.30991 -0.59147,2.60035 -61.73626,21.51122 -63.6925,19.69882 z" />
      <text
         xml:space="preserve"
         style="font-style:normal;font-weight:normal;font-size:40.5925px;line-height:1.25;font-family:sans-serif;fill:#0000ab;fill-opacity:1;stroke:none;stroke-width:1.01482"
         x="88.65918"
         y="130.53618"
         id="text1"><tspan
           id="tspan1"
           style="font-style:italic;font-variant:normal;font-weight:bold;font-stretch:normal;font-family:sans-serif;-inkscape-font-specification:'sans-serif Bold Italic';fill:#0000ab;fill-opacity:1;stroke-width:1.01482"
           x="88.65918"
           y="130.53618">EIKKAUS</tspan></text>
    </g>
  </g>
</svg>
